<svg width="60" height="72" viewBox="22 0 30 69" fill="none" xmlns="http://www.w3.org/2000/svg">
<path d="M48.8761 27.2877H40.7686V22.1502C40.7686 20.2167 42.0818 19.7748 43.0524 19.7748C43.9659 19.7748 48.819 19.7748 48.819 19.7748V11.2675L40.8257 11.2122C32.0901 11.2122 30.0918 17.5651 30.0918 21.653V27.343H25.0104V36.0712H30.0918C30.0918 47.3407 30.0918 60.9303 30.0918 60.9303H40.7686C40.7686 60.9303 40.7686 47.2302 40.7686 36.0712H47.9625L48.8761 27.2877Z" fill="#659EC9"/>
<path d="M40.8256 16.7364L48.7047 16.7917V11.2675L40.8256 11.2122C32.0901 11.2122 30.0918 17.5651 30.0918 21.653V27.1772C30.0918 23.0893 32.0901 16.7364 40.8256 16.7364Z" fill="white"/>
<path d="M40.7685 62.5876H30.0918C29.1212 62.5876 28.3789 61.8694 28.3789 60.9303V37.7285H25.0103C24.0397 37.7285 23.2975 37.0104 23.2975 36.0713C23.2975 35.1321 24.0397 34.414 25.0103 34.414H30.0918C31.0624 34.414 31.8046 35.1321 31.8046 36.0713V59.273H39.0557V36.0713C39.0557 35.1321 39.7979 34.414 40.7685 34.414H46.4209L46.9919 28.945H40.7685C39.7979 28.945 39.0557 28.2269 39.0557 27.2877V22.1502C39.0557 19.3328 41.054 18.1175 43.0523 18.1175H47.1061V12.8695H40.8827C38.1422 12.8695 31.8046 13.6981 31.8046 21.653V27.343C31.8046 28.2821 31.0624 29.0002 30.0918 29.0002H25.0103C24.0397 29.0002 23.2975 28.2821 23.2975 27.343C23.2975 26.4039 24.0397 25.6857 25.0103 25.6857H28.3789V21.653C28.3789 16.0736 31.6333 9.55496 40.8256 9.55496L48.7618 9.6102C49.7324 9.6102 50.4747 10.3284 50.4747 11.2675V19.7748C50.4747 20.7139 49.7324 21.4321 48.7618 21.4321H42.9952C42.6527 21.4321 42.4243 21.4321 42.4243 22.1502V25.6305H48.8189C49.2757 25.6305 49.7895 25.8514 50.075 26.1829C50.4176 26.5143 50.5318 27.0115 50.5318 27.4535L49.6182 36.237C49.5041 37.0656 48.8189 37.7285 47.9054 37.7285H42.4243V60.9303C42.4814 61.8694 41.6821 62.5876 40.7685 62.5876Z" fill="#444B54"/>
</svg>
