<svg width="74" height="80" viewBox="12 2 56 70" fill="none" style="overflow: visible" xmlns="http://www.w3.org/2000/svg">
<g>
<path d="M48.7897 59.3114H24.1437C18.7038 59.3114 14.2631 55.0148 14.2631 49.7514V25.9052C14.2631 20.6418 18.7038 16.3452 24.1437 16.3452H48.7897C54.2296 16.3452 58.6703 20.6418 58.6703 25.9052V49.7514C58.6703 55.0148 54.2296 59.3114 48.7897 59.3114Z" fill="#FF697B"/>
<path d="M14.2631 25.9052V31.9204H58.6703V25.9052C58.6703 20.6418 54.2296 16.3452 48.7897 16.3452H24.1437C18.7038 16.3452 14.2631 20.6418 14.2631 25.9052Z" fill="white"/>
<path d="M48.7897 60.9226H24.1437C17.7602 60.9226 12.5979 55.9278 12.5979 49.7514V25.9052C12.5979 19.7288 17.7602 14.7339 24.1437 14.7339H48.7897C55.1732 14.7339 60.3356 19.7288 60.3356 25.9052V49.7514C60.3356 55.9278 55.1732 60.9226 48.7897 60.9226ZM24.1437 17.9564C19.592 17.9564 15.9284 21.5011 15.9284 25.9052V49.7514C15.9284 54.1018 19.592 57.7002 24.1437 57.7002H48.7897C53.2859 57.7002 57.005 54.1555 57.005 49.7514V25.9052C57.005 21.5548 53.3414 17.9564 48.7897 17.9564H24.1437Z" fill="#444B54"/>
<path d="M36.4667 45.8845C41.0652 45.8845 44.7931 42.2776 44.7931 37.8283C44.7931 33.379 41.0652 29.7721 36.4667 29.7721C31.8682 29.7721 28.1404 33.379 28.1404 37.8283C28.1404 42.2776 31.8682 45.8845 36.4667 45.8845Z" fill="white"/>
<path d="M36.4667 47.4957C30.9713 47.4957 26.4751 43.1454 26.4751 37.8283C26.4751 36.9153 27.1967 36.2171 28.1404 36.2171C29.084 36.2171 29.8056 36.9153 29.8056 37.8283C29.8056 41.373 32.8031 44.2732 36.4667 44.2732C40.1303 44.2732 43.1278 41.373 43.1278 37.8283C43.1278 34.2836 40.1303 31.3834 36.4667 31.3834C35.5231 31.3834 34.8014 30.6852 34.8014 29.7721C34.8014 28.8591 35.5231 28.1609 36.4667 28.1609C41.9621 28.1609 46.4583 32.5112 46.4583 37.8283C46.4583 43.1454 41.9621 47.4957 36.4667 47.4957Z" fill="#444B54"/>
<path d="M30.8048 33.478C30.6938 33.478 30.5828 33.478 30.4717 33.4243C30.3607 33.3706 30.2497 33.3706 30.1387 33.3169C30.0277 33.2631 29.9166 33.2094 29.8611 33.1557C29.7501 33.102 29.6946 33.0483 29.5836 32.9409C29.5281 32.8872 29.4171 32.7798 29.3616 32.6724C29.306 32.5649 29.2505 32.5112 29.195 32.4038C29.1395 32.2964 29.1395 32.189 29.084 32.0816C29.084 31.9742 29.0285 31.8667 29.0285 31.7593C29.0285 31.6519 29.0285 31.5445 29.084 31.4371C29.084 31.3297 29.1395 31.2223 29.195 31.1148C29.2505 31.0074 29.306 30.9 29.3616 30.8463C29.4171 30.7389 29.4726 30.6852 29.5836 30.5778C29.6391 30.5241 29.7501 30.4166 29.8611 30.3629C29.9722 30.3092 30.0277 30.2555 30.1387 30.2018C30.2497 30.1481 30.3607 30.1481 30.4717 30.0944C30.6938 30.0407 30.9158 30.0407 31.1378 30.0944C31.2489 30.0944 31.3599 30.1481 31.4709 30.2018C31.5819 30.2555 31.6929 30.3092 31.7484 30.3629C31.8595 30.4166 31.915 30.4703 31.9705 30.5778C32.026 30.6315 32.137 30.7389 32.1925 30.8463C32.248 30.9537 32.3035 31.0074 32.359 31.1148C32.4146 31.2223 32.4146 31.3297 32.4701 31.4371C32.4701 31.5445 32.5256 31.6519 32.5256 31.7593C32.5256 31.8667 32.5256 31.9742 32.4701 32.0816C32.4701 32.189 32.4146 32.2964 32.359 32.4038C32.3035 32.5112 32.248 32.6187 32.1925 32.6724C32.137 32.7798 32.0815 32.8335 31.9705 32.9409C31.915 32.9946 31.804 33.102 31.7484 33.1557C31.6374 33.2094 31.5819 33.2631 31.4709 33.3169C31.3599 33.3706 31.2489 33.3706 31.1378 33.4243C31.0268 33.478 30.9158 33.478 30.8048 33.478Z" fill="#444B54"/>
<path d="M48.6787 28.1609C49.9049 28.1609 50.899 27.199 50.899 26.0126C50.899 24.8261 49.9049 23.8643 48.6787 23.8643C47.4524 23.8643 46.4583 24.8261 46.4583 26.0126C46.4583 27.199 47.4524 28.1609 48.6787 28.1609Z" fill="#444B54"/>
<path d="M11.4877 61.0838C10.5995 61.0838 9.82242 60.3856 9.82242 59.4725C9.82242 58.5595 10.544 57.8613 11.4877 57.8613L61.4457 57.5928C62.3339 57.5928 63.111 58.291 63.111 59.204C63.111 60.117 62.3894 60.8152 61.4457 60.8152L11.4877 61.0838Z" fill="#444B54"/>
<path d="M69.7721 60.8152C69.328 60.8152 68.8839 60.6541 68.6064 60.3319C68.5509 60.2781 68.4399 60.1707 68.3844 60.0633C68.3288 59.9559 68.2733 59.9022 68.2178 59.7948C68.1623 59.6874 68.1623 59.58 68.1068 59.4725C68.1068 59.3651 68.0513 59.2577 68.0513 59.1503C68.0513 59.0429 68.0513 58.9355 68.1068 58.828C68.1068 58.7206 68.1623 58.6132 68.2178 58.5058C68.2733 58.3984 68.3288 58.291 68.3844 58.2373C68.4399 58.1298 68.4954 58.0761 68.6064 57.9687C68.6619 57.915 68.7729 57.8076 68.8284 57.7539C68.9394 57.7002 68.995 57.6465 69.106 57.5928C69.217 57.5391 69.328 57.5391 69.439 57.4853C69.6611 57.4316 69.8831 57.4316 70.1051 57.4853C70.2161 57.4853 70.3272 57.5391 70.4382 57.5928C70.5492 57.6465 70.6602 57.7002 70.7157 57.7539C70.8267 57.8076 70.8823 57.8613 70.9378 57.9687C71.2708 58.291 71.4373 58.6669 71.4373 59.0966C71.4373 59.204 71.4373 59.3114 71.3818 59.4188C71.3818 59.5262 71.3263 59.6337 71.2708 59.7411C71.2153 59.8485 71.1598 59.9559 71.1043 60.0096C71.0488 60.117 70.9933 60.1707 70.8823 60.2782C70.6602 60.6541 70.2161 60.8152 69.7721 60.8152Z" fill="#444B54"/>
</g>
<defs>
<clipPath id="clip0">
<rect x="0.940979" y="0.769928" width="71.0515" height="68.746" fill="white"/>
</clipPath>
</defs>
</svg>
