<svg width="57" height="49" viewBox="0 -2 57 47" fill="none" xmlns="http://www.w3.org/2000/svg">
<path d="M48.3142 11.524C48.0922 11.7389 47.9256 12.0611 47.9811 12.3834C48.0367 13.4038 49.4244 37.8409 22.6136 43.9635C22.5025 43.9635 11.8448 46.1119 2.63033 41.7078C6.51596 41.6004 12.1224 40.6337 16.008 36.3908C16.2855 36.0685 16.3966 35.6388 16.1745 35.2092C16.008 34.8332 15.6194 34.5647 15.1754 34.5647C15.1198 34.6184 9.29141 34.5647 6.57147 29.1939C7.62614 29.2476 8.95835 29.1939 10.0685 28.7105C10.5126 28.4957 10.7901 28.066 10.7346 27.6364C10.6791 27.153 10.3461 26.7771 9.8465 26.7233C9.56895 26.6696 3.0189 25.2732 2.13075 18.3986C3.12991 18.8283 4.40662 19.1506 5.62782 18.9894C6.07189 18.9357 6.40494 18.6135 6.51596 18.2375C6.62698 17.8079 6.51596 17.3782 6.18291 17.1097C5.90536 16.8948 -0.200623 11.6315 2.68584 4.81058C5.84985 8.03304 15.1754 16.304 26.4992 15.7133C26.8322 15.7133 27.1098 15.5521 27.3318 15.2836C27.5539 15.0151 27.6094 14.6928 27.4983 14.3706C27.2763 13.5649 27.1653 12.7056 27.1653 11.8463C27.1653 6.26069 31.7725 1.69553 37.49 1.69553C40.2654 1.69553 42.8743 2.76968 44.8171 4.70316C45.0392 4.91799 45.3167 5.02541 45.5943 5.02541C46.76 5.02541 48.7028 4.91799 50.9231 4.05867C50.3125 4.81058 49.3689 5.72361 47.9811 6.79776C47.5926 7.0663 47.4261 7.60338 47.6481 8.03304C47.8146 8.46271 48.3142 8.73124 48.7583 8.73124C49.0358 8.73124 50.368 8.62383 51.8668 8.30158C50.9786 9.05349 49.8685 10.1276 48.3142 11.524Z" fill="#76ECFF"/>
<path d="M10.5126 23.662C10.9567 23.6083 11.2897 23.286 11.4007 22.9101C11.5118 22.4804 11.4007 22.0508 11.0677 21.7822C10.7901 21.5674 4.68416 16.304 7.57063 9.48315C10.7346 12.7056 20.0601 20.9766 31.384 20.3858C31.717 20.3858 31.9946 20.2247 32.2166 19.9562C32.4386 19.6876 32.4942 19.3654 32.3831 19.0431C32.1611 18.2375 32.0501 17.3782 32.0501 16.5189C32.0501 10.9333 36.6573 6.3681 42.3747 6.3681C44.2065 6.3681 50.257 4.75687 50.8676 4.00496C48.6473 4.86428 46.7044 4.9717 45.5388 4.9717C45.2612 4.9717 44.9837 4.86428 44.7616 4.64945C42.8188 2.71597 40.2099 1.64182 37.4344 1.64182C31.717 1.64182 27.1098 6.15327 27.1098 11.7389C27.1098 12.5982 27.2208 13.4575 27.4428 14.2631C27.4983 14.5854 27.4428 14.9076 27.2763 15.1762C27.0543 15.4447 26.7767 15.6058 26.4437 15.6058C15.1198 16.2503 5.79434 7.92562 2.63033 4.70316C-0.256135 11.4703 5.84985 16.7337 6.1274 17.0022C6.46045 17.2708 6.57147 17.7004 6.46045 18.1301C6.34943 18.5598 5.96087 18.8283 5.57231 18.882C4.2956 19.0431 3.0744 18.7209 2.07524 18.2912C2.68584 22.8564 5.73883 25.0047 7.84817 25.9714C7.45961 25.1121 7.18207 24.1991 7.01554 23.0712C7.95919 23.5009 9.2359 23.8768 10.5126 23.662Z" fill="white"/>
<path d="M14.9533 33.4905C15.3974 33.2757 15.6749 32.846 15.6194 32.4164C15.5639 31.933 15.2309 31.5571 14.7313 31.5033C14.5648 31.4496 11.9558 30.9126 9.8465 28.8717C8.84734 29.2476 7.62614 29.3013 6.57147 29.2476C7.9592 31.9867 10.1796 33.3831 12.0114 34.0276C12.955 33.9739 14.0652 33.8665 14.9533 33.4905Z" fill="white"/>
<path d="M20.8928 41.1707C21.1703 40.8485 21.2813 40.4188 21.0593 39.9892C20.8928 39.6132 20.5042 39.3447 20.0602 39.3447C20.0046 39.3447 17.2847 39.3447 14.6758 37.626C10.9012 40.7948 6.07189 41.6004 2.57483 41.7078C7.29309 43.9636 12.4554 44.5006 16.2855 44.5006C17.9508 43.695 19.5606 42.6209 20.8928 41.1707Z" fill="white"/>
<path d="M6.12739 18.6672C5.73883 18.6672 5.35027 18.5598 5.01721 18.2912C4.73967 18.0227 -2.25446 12.0074 1.07608 4.16608C1.29811 3.68271 1.74218 3.30676 2.29727 3.19934C2.85236 3.09192 3.40745 3.25305 3.79602 3.68271C13.066 13.0816 21.7254 14.1557 25.611 14.102C25.4445 13.3501 25.389 12.5982 25.389 11.8463C25.389 5.40136 30.7734 0.0842896 37.3789 0.0842896C40.5429 0.0842896 43.4849 1.26586 45.7053 3.41417C49.4244 3.19934 51.6447 1.42698 51.7002 1.42698C52.4219 0.836198 53.4765 0.943614 54.0316 1.58811C54.6422 2.28631 54.5312 3.30676 53.8651 3.84383C53.7541 3.95125 50.6456 6.47552 45.5387 6.63664C45.4832 6.63664 45.4832 6.63664 45.4277 6.63664C44.7061 6.63664 43.9845 6.31439 43.4849 5.83102C41.8752 4.21979 39.6548 3.30676 37.3234 3.30676C32.6607 3.25305 28.775 7.0663 28.775 11.7389C28.775 12.4371 28.8861 13.189 29.0526 13.8872C29.2746 14.6928 29.1081 15.4984 28.6085 16.1429C28.1089 16.7874 27.3318 17.2171 26.4992 17.2171C16.5076 17.7541 8.0702 11.9 3.51847 7.87192C3.18542 12.3834 7.01553 15.6595 7.18206 15.8207C7.84817 16.4115 7.95919 17.4319 7.34859 18.0764C7.07104 18.4524 6.57146 18.6672 6.12739 18.6672Z" fill="#444B54"/>
<path d="M47.9812 13.9946C47.4261 13.9946 46.871 13.7261 46.5379 13.189C46.0938 12.4371 46.3714 11.4166 47.1485 10.987C50.146 9.32202 53.2545 5.50877 53.31 5.45507C53.8651 4.75686 54.9198 4.64945 55.6414 5.18653C56.363 5.7236 56.474 6.74405 55.9189 7.44225C55.7524 7.60338 52.3664 11.7926 48.8138 13.7798C48.5362 13.8872 48.2587 13.9946 47.9812 13.9946Z" fill="#444B54"/>
<path d="M9.79098 28.2809C9.67996 28.2809 9.56894 28.2809 9.45793 28.2272C9.12487 28.1735 1.46463 26.5085 0.409963 18.5061C0.298945 17.6467 0.965053 16.8411 1.8532 16.68C2.74134 16.5726 3.57397 17.2171 3.7405 18.0764C4.51763 23.8231 9.95751 25.0047 10.1795 25.0584C11.0677 25.2195 11.6783 26.0789 11.4562 26.9919C11.2342 27.7975 10.5681 28.2809 9.79098 28.2809Z" fill="#444B54"/>
<path d="M15.1753 36.2296C14.2317 36.2833 13.066 36.0148 12.3444 35.8C10.0685 35.1555 6.90451 33.6517 5.07271 29.8921C4.68415 29.0865 5.0172 28.1198 5.84984 27.7438C6.68247 27.3678 7.68163 27.6901 8.07019 28.4957C10.1795 32.7386 14.6758 32.9535 15.0643 33.0072C16.008 32.9535 16.8406 33.7054 16.8406 34.6184C16.8406 35.4777 16.0635 36.2296 15.1753 36.2296Z" fill="#444B54"/>
<path d="M15.2308 39.7206C15.1198 39.7206 15.0088 39.7206 14.8978 39.6669C14.7868 39.6669 14.6758 39.6132 14.5647 39.5595C14.4537 39.5058 14.3427 39.4521 14.2872 39.3984C14.1762 39.3447 14.1207 39.291 14.0096 39.1835C13.9541 39.1298 13.8431 39.0224 13.7876 38.915C13.7321 38.8076 13.6766 38.7539 13.6211 38.6465C13.5656 38.5391 13.5656 38.4316 13.5101 38.3242C13.5101 38.2168 13.4546 38.1094 13.4546 38.002C13.4546 37.8946 13.4546 37.7871 13.5101 37.6797C13.5101 37.5723 13.5656 37.4649 13.6211 37.3575C13.6766 37.2501 13.7321 37.1427 13.7876 37.0889C13.8431 36.9815 13.8986 36.9278 14.0096 36.8204C14.0652 36.7667 14.1762 36.6593 14.2872 36.6056C14.3982 36.5519 14.4537 36.4982 14.5647 36.4445C14.6758 36.3907 14.7868 36.3907 14.8978 36.337C15.1198 36.2833 15.3419 36.2833 15.5639 36.337C15.6749 36.337 15.7859 36.3907 15.897 36.4445C16.008 36.4982 16.119 36.5519 16.1745 36.6056C16.2855 36.6593 16.341 36.713 16.452 36.8204C16.5631 36.9278 16.6186 36.9815 16.6741 37.0889C16.7296 37.1964 16.7851 37.2501 16.8406 37.3575C16.8961 37.4649 16.8961 37.5723 16.9516 37.6797C16.9516 37.7871 17.0071 37.8946 17.0071 38.002C17.0071 38.1094 17.0071 38.2168 16.9516 38.3242C16.9516 38.4316 16.8961 38.5391 16.8406 38.6465C16.7851 38.7539 16.7296 38.8613 16.6741 38.915C16.6186 38.9687 16.5631 39.0761 16.452 39.1835C16.3965 39.2373 16.2855 39.3447 16.1745 39.3984C16.0635 39.4521 16.008 39.5058 15.897 39.5595C15.7859 39.6132 15.6749 39.6132 15.5639 39.6669C15.4529 39.6669 15.3419 39.7206 15.2308 39.7206Z" fill="#444B54"/>
<path d="M2.63033 43.319C1.74218 43.319 0.965057 42.6208 0.965057 41.7615C0.965057 40.8485 1.68667 40.1503 2.57482 40.0966C5.51679 40.0429 8.18122 39.4521 10.4016 38.4316C11.2342 38.0557 12.2334 38.3779 12.6219 39.1835C13.0105 39.9892 12.6774 40.9559 11.8448 41.3319C9.18038 42.5671 6.07188 43.2116 2.63033 43.319Z" fill="#444B54"/>
<path d="M16.1745 46.1119C14.5092 46.1119 12.6219 46.0044 10.6236 45.7359C9.73547 45.6285 9.06937 44.7692 9.23589 43.9098C9.34691 43.0505 10.2351 42.406 11.1232 42.5671C17.1182 43.4265 22.225 42.406 22.2805 42.406C47.6481 36.5519 46.3714 13.4575 46.3159 12.4908C46.2604 11.5778 46.9265 10.8258 47.8701 10.7721C48.8138 10.7184 49.5909 11.3629 49.6464 12.276C49.7019 13.3501 51.1452 39.0761 23.0021 45.5211C22.7801 45.5748 20.0601 46.1119 16.1745 46.1119Z" fill="#444B54"/>
</svg>
